<?xml version="1.0" encoding="utf-8"?>
<!-- Generator: Adobe Illustrator 22.0.1, SVG Export Plug-In . SVG Version: 6.00 Build 0)  -->
<svg version="1.1" id="Слой_1" xmlns="http://www.w3.org/2000/svg" xmlns:xlink="http://www.w3.org/1999/xlink" x="0px" y="0px"
	 viewBox="0 0 490.1 490.1" style="enable-background:new 0 0 490.1 490.1;" xml:space="preserve">
<style type="text/css">
	.st0{clip-path:url(#SVGID_2_);fill:#041E42;}
	.st1{clip-path:url(#SVGID_2_);fill:#FFFFFF;}
	.st2{clip-path:url(#SVGID_2_);fill:#FFD100;}
	.st3{clip-path:url(#SVGID_2_);fill:#A6192E;}
	.st4{clip-path:url(#SVGID_2_);fill:#7DA1C4;}
</style>
<g>
	<defs>
		<rect id="SVGID_1_" width="490.1" height="490.1"/>
	</defs>
	<clipPath id="SVGID_2_">
		<use xlink:href="#SVGID_1_"  style="overflow:visible;"/>
	</clipPath>
	<path class="st0" d="M490.1,245.1c0,135.3-109.7,245.1-245.1,245.1C109.7,490.1,0,380.4,0,245.1S109.7,0,245.1,0
		C380.4,0,490.1,109.7,490.1,245.1"/>
	<path class="st1" d="M245.1,85.6c-87.9,0-159.5,71.5-159.5,159.5s71.5,159.5,159.5,159.5c87.9,0,159.5-71.5,159.5-159.5
		S333,85.6,245.1,85.6"/>
	<path class="st2" d="M245.1,10C115.5,10,10,115.5,10,245.1s105.4,235.1,235.1,235.1c129.6,0,235.1-105.4,235.1-235.1
		S374.7,10,245.1,10 M245.1,477.8c-128.3,0-232.7-104.4-232.7-232.7c0-128.3,104.4-232.7,232.7-232.7
		c128.3,0,232.7,104.4,232.7,232.7C477.8,373.4,373.4,477.8,245.1,477.8"/>
	<path class="st2" d="M245.1,74.5c-94.2,0-170.5,76.3-170.5,170.5c0,94.2,76.3,170.5,170.5,170.5s170.5-76.3,170.5-170.5
		C415.6,150.9,339.2,74.5,245.1,74.5 M245.1,413.5c-92.9,0-168.5-75.6-168.5-168.5S152.2,76.6,245.1,76.6
		c92.9,0,168.5,75.6,168.5,168.5S338,413.5,245.1,413.5"/>
	<path class="st3" d="M268.4,228.2h35v-18.5h-53v47.4c6.3-0.1,20.2-1.9,28.8,0.6c4.7,1.3,7.4,4,7.7,9.1c-0.1,6.9-3.8,10.5-9.7,10.5
		c-5.7,0-9.4-2.9-9.5-8.5h-18.7c0.7,17.3,12.5,27.7,28.7,27.7c19.7,0,30-15.1,29.9-29.7c-0.1-25.3-19.3-29.3-39.1-28.1V228.2z
		 M338.6,228.2h35v-18.5h-53v47.4c6.3-0.1,20.2-1.9,28.8,0.6c4.7,1.3,7.4,4,7.7,9.1c-0.1,6.9-3.8,10.5-9.7,10.5
		c-5.7,0-9.4-2.9-9.5-8.5h-18.7c0.7,17.3,12.5,27.7,28.7,27.7c19.7,0,30-15.1,29.9-29.7c-0.1-25.3-19.3-29.3-39.1-28.1V228.2z"/>
	<path class="st4" d="M225.7,238.2l16.5-28.6H220l-2.6,4.7c2.3,3.6,4.2,7.3,5.6,11.1C224.4,229.6,225.2,233.8,225.7,238.2"/>
	<path class="st4" d="M194.1,261.9c3.8-5.6,5.8-11.1,6.1-16.5l-12.7,22.9C190.3,266.4,192.5,264.3,194.1,261.9"/>
	<path class="st4" d="M181.1,297.6c-4.3,0.7-9.3,1.1-14.9,1.2l13.1,19.4l14.1-24.3c-0.2,0.1-0.3,0.2-0.5,0.2
		C189.8,295.7,185.8,296.8,181.1,297.6"/>
	<path class="st4" d="M117.7,191.5v35.3l0.2,0.3l10.1,15.1l21.2,31.6h17.8c2.8,0,5.2-0.1,7.2-0.4L117.7,191.5z"/>
	<path class="st0" d="M220.7,226.3c-1.9-5.5-4.9-10.7-9-15.6c-2.2-2.6-4.3-4.9-6.4-6.7c-2.1-1.8-4.1-3.3-6.2-4.5
		c-3.6-2.1-7-3.9-10.2-5.2c-3.2-1.3-6.3-2-9.2-2.1c-1-0.4-3.6-0.6-7.6-0.8c-4.1-0.1-9.7-0.2-16.8-0.2h-26.5l13.5,20.5h24.7
		c9.6,0,16.8,2.2,22.1,6.4c1.3,1,2.8,2,4.1,3.3c1.3,1.3,2.5,2.8,3.6,4.6c3.8,5.8,5.6,11.9,5.6,18.3c0,6.2-2.2,12.5-6.5,18.9
		c-3.4,5.1-9.1,9-16.8,11.5c-2.8,0.9-6.8,1.4-12.2,1.4h-28.6l0-9.2l-20.8-36v45.2l20.8,20.4h26.3c6.1,0,11.4-0.4,15.9-1.2
		c4.5-0.8,8.2-1.9,11.2-3.3c6.4-2.9,11.8-6.6,16.4-11.1c4.6-4.5,8.2-9.9,11-16.3c2.8-6.4,4.2-13.3,4.2-20.7
		C223.6,237.7,222.7,231.8,220.7,226.3"/>
	<path class="st1" d="M97.4,352.4L68,374.2l-7.8-10.6l-0.5-0.6c-0.4-0.6-0.6-1.1-0.7-1.5c0-0.5,0.1-0.8,0.5-1.1
		c0.6-0.4,1.2-0.4,1.9,0.1c0.5,0.4,0.9,0.6,1,0.7c0.1,0.1,0.3,0.1,0.4,0.1c0.4,0,0.8-0.2,1.3-0.5l21.6-15.9c0.5-0.4,0.8-0.7,0.9-1.1
		c0.1-0.2,0.1-0.3,0-0.5c0-0.1-0.2-0.5-0.4-1.1c-0.3-0.8-0.1-1.4,0.5-1.8c0.4-0.3,0.8-0.3,1.2-0.2c0.4,0.2,0.8,0.5,1.3,1.1l0.5,0.6
		L97.4,352.4z M77.7,374.4l17-12.6c1-0.8,1.8-1.6,2.1-2.3c0.3-0.5,0.4-1,0.3-1.4c0-0.4-0.2-1-0.6-1.8l2.4-1.8
		c0.6,0.8,1.1,1.6,1.5,2.2c1.3,2.2,1.9,4.7,2,7.6c0.1,2.8-0.6,5.5-2,7.9c-1.4,2.5-3.5,4.7-6,6.6c-2.9,2.2-6,3.5-9.1,4
		c-3.2,0.5-6.2,0.1-9.1-1.1c-1.4-0.6-2.6-1.3-3.5-2c-0.9-0.8-1.9-1.9-3-3.4l2.3-1.7c0.6,0.5,1.1,0.9,1.5,1.1
		c0.3,0.2,0.7,0.2,1.1,0.2c0.5,0,1-0.1,1.4-0.3C76.3,375.4,76.9,375,77.7,374.4"/>
	<path class="st1" d="M101.5,410.7l-9.7-8.9l-0.6-0.5c-0.5-0.5-0.8-0.9-1-1.4c-0.1-0.4,0-0.8,0.3-1.1c0.5-0.5,1.1-0.6,1.8-0.3
		c0.6,0.3,1,0.5,1.1,0.5c0.1,0,0.3,0,0.5,0c0.4-0.1,0.8-0.3,1.2-0.8l18.2-19.7c0.4-0.5,0.6-0.9,0.7-1.2c0-0.2,0-0.4,0-0.5
		c0-0.1-0.2-0.4-0.6-1c-0.4-0.7-0.4-1.3,0.1-1.9c0.3-0.3,0.7-0.5,1.1-0.4c0.4,0.1,0.9,0.4,1.4,0.8l0.6,0.5l9.7,8.9l0.6,0.5
		c0.5,0.5,0.8,0.9,1,1.4c0.1,0.4,0,0.8-0.3,1.1c-0.5,0.5-1.1,0.6-1.8,0.3c-0.6-0.3-1-0.5-1.1-0.5s-0.3,0-0.5,0
		c-0.4,0.1-0.8,0.3-1.2,0.8l-18.2,19.7c-0.4,0.5-0.6,0.9-0.7,1.2c0,0.2,0,0.4,0,0.5c0,0.1,0.2,0.5,0.6,1c0.4,0.7,0.4,1.3-0.1,1.9
		c-0.3,0.3-0.7,0.5-1.1,0.4s-0.9-0.4-1.4-0.8L101.5,410.7z"/>
	<path class="st1" d="M139.1,426.2l-7.4,6.5l-6.6-4.1l8.1-32.7c0.1-0.5,0.2-0.8,0.1-1.1c0-0.2-0.1-0.5-0.3-0.7
		c-0.4-0.5-0.6-0.9-0.7-1.2c-0.1-0.3,0-0.6,0.2-0.9c0.3-0.5,0.7-0.7,1.3-0.6c0.5,0,1.1,0.3,1.9,0.8l11.1,7c0.7,0.4,1.2,0.8,1.4,0.9
		c0.2,0.2,0.4,0.4,0.5,0.6c0.1,0.2,0.1,0.5,0.1,0.7c0,0.3-0.1,0.5-0.2,0.7c-0.4,0.6-0.9,0.8-1.6,0.7c-0.6-0.1-1-0.1-1.3,0
		c-0.3,0.1-0.5,0.3-0.8,0.7c-0.2,0.2-0.3,0.5-0.3,0.7L139.1,426.2z M142.1,423.5l1.3-5.1l8.9-7.8c0.6-0.5,0.9-0.8,1-0.9
		c0.2-0.3,0.4-0.7,0.4-1.3c0.1-0.7-0.1-1.3-0.6-1.8l-0.7-0.8c-0.5-0.6-0.6-1.2-0.2-1.8c0.3-0.4,0.6-0.6,1.1-0.6
		c0.5,0,1.1,0.2,1.7,0.6l6.1,3.8c0.8,0.5,1.2,0.9,1.4,1.1c0.3,0.5,0.3,0.9,0,1.4c-0.2,0.3-0.4,0.5-0.6,0.6c-0.2,0.1-0.6,0.1-1,0
		l-1.6-0.3c-0.7-0.1-1.5,0-2.4,0.4c-0.9,0.4-1.8,0.9-2.6,1.6L142.1,423.5z"/>
	<path class="st1" d="M171.1,451.4l-12.2-4.8l-0.7-0.3c-0.7-0.3-1.1-0.6-1.4-0.9c-0.3-0.4-0.3-0.8-0.2-1.2c0.3-0.7,0.8-1,1.6-0.9
		c0.7,0.1,1.1,0.1,1.2,0.1c0.1,0,0.3-0.1,0.4-0.2c0.3-0.2,0.6-0.6,0.8-1.1l9.8-25c0.2-0.6,0.3-1,0.2-1.4c-0.1-0.2-0.1-0.3-0.2-0.4
		c-0.1-0.1-0.4-0.3-0.9-0.8c-0.6-0.5-0.8-1.1-0.6-1.8c0.2-0.4,0.5-0.7,0.9-0.8c0.4-0.1,1,0,1.7,0.3l0.7,0.3l12.2,4.8l0.7,0.3
		c0.7,0.3,1.1,0.6,1.4,0.9c0.3,0.4,0.3,0.8,0.2,1.2c-0.3,0.7-0.8,1-1.6,0.9c-0.7-0.1-1.1-0.1-1.2-0.1c-0.1,0-0.3,0.1-0.4,0.2
		c-0.3,0.2-0.6,0.6-0.8,1.1l-9.8,25c-0.2,0.6-0.3,1-0.2,1.4c0.1,0.2,0.1,0.3,0.2,0.4c0.1,0.1,0.4,0.3,0.9,0.8
		c0.6,0.5,0.8,1.1,0.6,1.8c-0.2,0.4-0.5,0.7-0.9,0.8c-0.4,0.1-1,0-1.7-0.3L171.1,451.4z"/>
	<path class="st1" d="M200.6,457.2l-0.6,3c-1.6-0.3-3.2-1.1-5-2.3c-0.7-0.4-1.1-0.7-1.4-0.9c-0.3-0.1-0.5-0.2-0.8-0.3
		c-0.4-0.1-0.7-0.1-0.9,0c-0.2,0.1-0.6,0.3-1.1,0.7c-0.4,0.3-0.8,0.4-1.2,0.4c-1.1-0.2-1.5-1.1-1.2-2.6l1.9-9.6
		c0.1-0.5,0.3-0.9,0.7-1.2c0.4-0.3,0.8-0.4,1.3-0.3c0.4,0.1,0.7,0.2,0.9,0.5c0.2,0.3,0.3,0.7,0.4,1.4c0.1,1.6,0.5,3.1,1.1,4.6
		c0.6,1.5,1.3,2.8,2.3,3.9C197.9,455.8,199.1,456.6,200.6,457.2 M208.8,423.2l-0.6,3c-1.3,0.1-2.3,0.3-3,0.8
		c-0.7,0.5-1.2,1.2-1.4,2.1c-0.2,0.9-0.1,1.7,0.3,2.5s1.1,1.6,2.2,2.4c0.7,0.6,2.4,1.7,5,3.4c1.6,1,2.8,1.9,3.7,2.6
		c0.8,0.7,1.6,1.6,2.3,2.6c1.8,2.6,2.5,5.4,1.9,8.4c-0.4,2.3-1.5,4.2-3.1,5.8c-1.6,1.6-3.6,2.8-6,3.4c-1.3,0.3-2.6,0.5-4.1,0.6
		c-1.4,0.1-2.8,0-4-0.3l0.6-3c1.8,0,3.1-0.3,3.9-0.8c0.9-0.5,1.4-1.3,1.6-2.5c0.2-1.2-0.1-2.3-1.1-3.4c-0.7-0.7-2-1.7-4-3
		c-2.2-1.4-3.7-2.4-4.5-3c-0.8-0.6-1.5-1.2-2.3-1.9c-3.2-3.1-4.4-6.5-3.6-10.5c0.4-2,1.2-3.8,2.4-5.3c1.2-1.5,2.8-2.6,4.6-3.3
		C202.5,422.9,205.4,422.7,208.8,423.2 M210.5,426.6l0.6-2.9c1.1,0.3,2.1,0.6,2.9,1c0.8,0.4,1.9,1,3.4,1.9c0.4,0.2,0.7,0.3,0.9,0.4
		c0.4,0.1,0.7,0,0.9-0.2l0.8-0.6c0.4-0.3,0.8-0.4,1.2-0.4c0.5,0.1,0.9,0.3,1,0.7c0.2,0.4,0.2,1,0,1.7l-1.7,8.7
		c-0.1,0.5-0.3,0.9-0.7,1.2c-0.4,0.3-0.8,0.3-1.3,0.2c-0.4-0.1-0.7-0.3-1-0.6c-0.1-0.2-0.3-0.4-0.3-0.6c-0.1-0.2-0.1-0.6-0.1-1.1
		c0-0.9-0.2-1.9-0.6-2.9c-0.3-1-0.8-1.9-1.3-2.8C214.1,428.8,212.5,427.5,210.5,426.6"/>
	<path class="st1" d="M248,464.1l-13.1-0.2l-0.8,0c-0.7,0-1.3-0.1-1.6-0.4c-0.4-0.2-0.6-0.6-0.6-1c0-0.7,0.4-1.2,1.2-1.4
		c0.7-0.2,1-0.3,1.1-0.3c0.1,0,0.2-0.1,0.3-0.3c0.2-0.3,0.4-0.7,0.4-1.4l0.4-26.8c0-0.6-0.1-1.1-0.3-1.4c-0.1-0.2-0.2-0.3-0.3-0.3
		c-0.1,0-0.5-0.2-1.1-0.4c-0.8-0.2-1.2-0.7-1.2-1.5c0-0.4,0.2-0.8,0.6-1c0.4-0.2,0.9-0.3,1.6-0.3l0.8,0l13.1,0.2l0.8,0
		c0.7,0,1.3,0.1,1.6,0.4c0.4,0.2,0.6,0.6,0.6,1c0,0.7-0.4,1.2-1.2,1.4c-0.7,0.2-1,0.3-1.1,0.3c-0.1,0-0.2,0.1-0.3,0.3
		c-0.2,0.3-0.4,0.7-0.4,1.4l-0.4,26.8c0,0.6,0.1,1.1,0.3,1.4c0.1,0.2,0.2,0.3,0.3,0.3c0.1,0,0.5,0.2,1.1,0.4
		c0.8,0.2,1.2,0.7,1.2,1.5c0,0.4-0.2,0.8-0.6,1c-0.4,0.2-0.9,0.3-1.6,0.3L248,464.1z"/>
	<path class="st1" d="M275.4,427.1c-0.9,0.5-1.6,1-1.9,1.7c-0.3,0.6-0.4,1.5-0.2,2.5l4.1,23.6c0.3,1.5,0.7,2.6,1.3,3.2
		c0.5,0.5,1.2,0.7,2.2,0.8l0.5,2.9c-4.4,0.4-8.2-0.4-11.6-2.5c-4.4-2.8-7.1-7.2-8.1-13.3c-0.5-3.1-0.5-5.9,0.1-8.6
		c0.6-2.6,1.7-5,3.3-7.1c1.3-1.6,2.7-2.9,4.3-3.8c1.6-1,3.4-1.7,5.5-2.2L275.4,427.1z M277.8,426.7l-0.5-2.9
		c2.1-0.3,4.1-0.2,5.9,0.2c1.9,0.4,3.6,1.1,5.4,2.2c4.6,2.8,7.4,7.3,8.5,13.6c1.1,6.1,0,11.2-3.2,15.3c-2.4,3.1-5.8,5.2-10.1,6.3
		l-0.5-2.9c0.5-0.2,0.9-0.4,1.1-0.6c0.3-0.2,0.5-0.5,0.6-0.9c0.4-0.8,0.5-1.9,0.2-3.4l-4.1-23.6c-0.2-0.9-0.5-1.6-0.9-2.1
		c-0.3-0.3-0.6-0.6-1-0.7C278.9,426.9,278.4,426.8,277.8,426.7"/>
	<path class="st1" d="M315.7,413.2l24.2,16.6l4.7,10.9l-7.4,3.2l-30.8-20.9c-0.7-0.5-1.2-0.7-1.5-0.9c-0.4-0.1-0.8-0.2-1.2-0.1
		l-1.2,0.1c-0.3,0-0.6,0-0.8-0.2c-0.3-0.1-0.4-0.3-0.6-0.6c-0.1-0.3-0.2-0.6-0.1-0.9c0.1-0.3,0.2-0.6,0.4-0.8
		c0.3-0.2,1.1-0.7,2.4-1.2L315.7,413.2z M308,426.8l4.7,3.1l5.7,13.2c0.5,1.1,1.1,2,1.9,2.6c0.7,0.6,1.7,0.9,2.8,1l1,0.1
		c0.6,0,1,0.3,1.2,0.8c0.2,0.4,0.1,0.8-0.1,1.2c-0.2,0.3-0.7,0.7-1.7,1.1l-6.3,2.7c-1.6,0.7-2.6,0.6-3-0.2c-0.1-0.3-0.1-0.6,0-0.8
		c0.1-0.2,0.4-0.6,0.8-1.2c1.4-1.6,1.5-3.6,0.6-5.9L308,426.8z M338.2,425.9l-4.8-3.2l-2.9-6.8c-0.6-1.4-1.3-2.3-2-2.9
		c-0.8-0.5-1.8-0.8-3.2-0.9c-0.4,0-0.8-0.1-1-0.2c-0.2-0.1-0.4-0.3-0.5-0.6c-0.2-0.4-0.2-0.8,0.1-1.2c0.2-0.3,0.7-0.7,1.4-1l6.8-2.9
		c0.9-0.4,1.6-0.5,2-0.4c0.4,0.1,0.7,0.4,0.9,0.7c0.1,0.3,0.2,0.6,0.1,0.9s-0.4,0.7-0.9,1.2c-0.8,0.9-1.2,1.8-1.3,3
		c-0.1,0.8,0.2,1.8,0.7,3L338.2,425.9z"/>
	<path class="st1" d="M364.5,394.2l-5.3-7.1c0.5-0.4,0.8-0.6,0.9-0.7l4.9-3.5c1.7-1.2,3.7-2.8,5.9-4.8c1.5-1.3,2.6-2.5,3.4-3.4
		c0.8-0.9,1.5-2.1,2.2-3.3c0.5,1.2,0.9,2.2,1,3.2c0.2,0.9,0.2,2,0.1,3.2c-0.1,1.3-0.4,2.5-0.9,3.7c-0.4,1.2-1,2.3-1.7,3.2
		c-1,1.4-2.6,3.1-4.6,4.9C368.5,391.3,366.6,392.8,364.5,394.2 M365.8,395.8l2.2-1.6l3.4,4.5c0.3-1.4,0.6-2.6,1-3.5
		c0.4-0.9,0.9-1.9,1.5-2.8l2.5,2.8c-1.3,1.7-2.2,3.4-2.7,4.9c-0.3,1-0.7,1.7-1,2c-0.4,0.4-0.8,0.5-1.2,0.6c-0.4,0-0.7-0.1-1-0.5
		c-0.1-0.2-0.3-0.4-0.5-0.6L365.8,395.8z M387.7,407.7l2,2.2c-1.6,1.3-3.4,2.2-5.2,2.8c-1.8,0.5-3.4,0.7-4.8,0.4
		c-1.4-0.2-2.6-0.9-3.5-1.8c-1-1.2-1.5-2.5-1.4-4c0.1-1.5,0.8-2.8,2-3.9c1-1,2.3-1.4,3.7-1.4c1.4,0,2.5,0.5,3.4,1.4
		c0.5,0.5,0.8,1.2,1,2c0.2,0.8,0.2,1.6,0.1,2.2c-0.1,0.5-0.1,0.9,0,1c0.2,0.2,0.5,0.2,1,0.1C386.5,408.5,387.1,408.2,387.7,407.7
		 M378.2,393.4l-2.6-2.9c1.5-1.4,2.9-2.4,4.1-3.1c1.2-0.7,2.5-1.2,3.9-1.6c4.3-1.1,8,0,11,3.3c1.4,1.6,2.4,3.3,2.8,5.2
		c0.5,1.9,0.4,3.7-0.1,5.7c-0.4,1.3-1,2.7-1.9,4c-0.9,1.4-1.9,2.6-3,3.6l-0.7,0.6l-2-2.2c0.3-0.5,0.5-1,0.6-1.5
		c0.1-0.4,0-0.9-0.1-1.5c-0.1-0.3-0.3-0.8-0.6-1.3c-0.4-0.6-0.7-1-1.1-1.5l-4.6-5.1c-1.1-1.2-2-1.9-2.7-2.1
		C380.3,392.8,379.3,392.9,378.2,393.4"/>
	<path class="st1" d="M392.8,366.2l-6.7-5.9c0.4-0.5,0.7-0.8,0.8-0.9l4.1-4.4c1.5-1.5,3-3.5,4.8-5.9c1.2-1.6,2-2.9,2.6-4
		c0.6-1.1,1.1-2.3,1.4-3.7c0.8,1.1,1.3,2,1.7,2.9c0.3,0.9,0.6,1.9,0.7,3.1c0.1,1.3,0.1,2.5-0.1,3.8c-0.2,1.3-0.5,2.5-1,3.5
		c-0.7,1.6-1.9,3.5-3.5,5.8C396.1,362.5,394.5,364.4,392.8,366.2 M394.3,367.5l1.8-2l4.2,3.7c0-1.5,0-2.7,0.2-3.7c0.2-1,0.5-2,0.9-3
		l3.1,2.2c-0.9,2-1.4,3.8-1.6,5.4c-0.1,1.1-0.3,1.8-0.6,2.1c-0.3,0.4-0.7,0.7-1.1,0.8c-0.4,0.1-0.8,0-1.1-0.3
		c-0.2-0.1-0.4-0.3-0.6-0.5L394.3,367.5z M406,362.7l-3.1-2.3c1.2-1.6,2.3-2.9,3.3-3.9c1-0.9,2.2-1.7,3.5-2.3c4-2,7.8-1.6,11.4,1
		c1.7,1.2,3,2.7,3.8,4.5c0.8,1.7,1.2,3.6,1.1,5.5c-0.1,1.4-0.5,2.8-1,4.3c-0.6,1.5-1.3,2.9-2.2,4.1l-0.5,0.7l-2.5-1.8
		c0.2-0.6,0.3-1.1,0.3-1.6c0-0.5-0.2-0.9-0.4-1.4c-0.1-0.3-0.4-0.7-0.9-1.1c-0.5-0.5-0.9-0.9-1.4-1.2l-5.6-4
		c-1.3-0.9-2.3-1.4-3.1-1.5C407.9,361.6,407,362,406,362.7 M418.3,374.6l2.4,1.7c-1.3,1.6-2.8,2.9-4.5,3.8c-1.6,0.9-3.1,1.4-4.6,1.4
		c-1.4,0.1-2.7-0.3-3.8-1.1c-1.3-0.9-2-2.1-2.2-3.6c-0.2-1.5,0.2-2.9,1.2-4.2c0.8-1.1,1.9-1.9,3.3-2.2c1.4-0.3,2.6-0.1,3.6,0.7
		c0.6,0.4,1.1,1,1.4,1.8c0.4,0.8,0.5,1.5,0.5,2.2c0,0.5,0.1,0.9,0.2,1c0.2,0.2,0.6,0.1,1-0.1C417.2,375.7,417.7,375.3,418.3,374.6"
		/>
	<polygon class="st1" points="61.4,297.5 64.3,290.6 56.9,291.9 54.1,285 49.8,291.1 42.9,288.2 44.2,295.5 37.2,298.4 43.3,302.7 
		40.4,309.6 47.8,308.3 50.6,315.3 54.9,309.2 61.8,312.1 60.6,304.7 67.5,301.9 	"/>
	<polygon class="st1" points="447.1,302.5 453.2,298.1 446.2,295.3 447.5,287.9 440.6,290.8 436.3,284.7 433.5,291.7 426.1,290.4 
		429,297.3 422.9,301.6 429.8,304.4 428.5,311.8 435.5,308.9 439.8,315 442.6,308.1 450,309.4 	"/>
	<polygon class="st1" points="26.5,239.1 28,218.9 34.8,219.4 34.4,226 64.1,228.2 63.6,235.3 33.8,233.1 33.4,239.6 	"/>
	<path class="st1" d="M31.7,197.1l2-7.1c1.1-3.9,2.2-6.6,3.3-8.1c1.2-1.5,2.7-2.5,4.6-3.1c1.9-0.6,4-0.5,6.2,0.1
		c2.3,0.6,4.1,1.7,5.4,3.3c1.3,1.5,2,3.5,2.2,6l18-4.1l-2,7.4l-17.2,3.9l-0.2,0.6l15,4.1l-1.8,6.7L31.7,197.1z M47.4,194.1L48,192
		c0.6-2.1,0.7-3.7,0.4-4.7c-0.3-1-1.2-1.6-2.5-2c-0.8-0.2-1.5-0.2-2.2,0c-0.7,0.2-1.2,0.7-1.7,1.3c-0.4,0.6-0.9,1.8-1.4,3.6
		l-0.5,1.8L47.4,194.1z"/>
	<path class="st1" d="M52.2,142.5l3.4-6.2l39,5.4l-3.5,6.4l-8-1.1L75.8,160l5.2,6.3l-3.5,6.4L52.2,142.5z M62.4,144.1l8.6,10.4
		l4.8-8.6L62.4,144.1z"/>
	
		<rect x="88.7" y="97.6" transform="matrix(0.6455 -0.7637 0.7637 0.6455 -55.8861 111.5361)" class="st1" width="6.9" height="36.7"/>
	<polygon class="st1" points="97.4,83.4 102.7,79.2 130,88.3 115,69.4 120.4,65.1 143.3,93.8 138.1,98 110.8,88.9 125.8,107.8 
		120.3,112.1 	"/>
	
		<rect x="149.9" y="48.9" transform="matrix(0.8884 -0.4592 0.4592 0.8884 -13.7506 77.9089)" class="st1" width="6.9" height="36.7"/>
	<polygon class="st1" points="170.6,39.1 177.1,37.3 198.8,56.2 192.2,33 198.9,31 209,66.3 202.6,68.2 180.8,49.3 187.5,72.5 
		180.8,74.4 	"/>
	<path class="st1" d="M259.8,32.4l-4.8,4.9c-3.2-3.2-6.8-4.8-11-4.8c-3.6,0.1-6.6,1.3-9,3.7c-2.4,2.4-3.6,5.4-3.5,8.8
		c0.1,3.5,1.4,6.5,3.9,8.9c2.6,2.4,5.7,3.6,9.4,3.5c2.4,0,4.4-0.6,6.1-1.6c1.6-1,3-2.7,3.9-4.8l-10.6,0.2l-0.1-6.6l18.5-0.3l0.1,1.5
		c0.1,3.2-0.7,6.3-2.3,9.2c-1.6,2.9-3.7,5.1-6.4,6.7c-2.6,1.6-5.7,2.4-9.3,2.4c-3.8,0.1-7.2-0.7-10.2-2.3c-3-1.6-5.4-3.9-7.2-7
		c-1.8-3-2.7-6.3-2.8-9.9c-0.1-4.9,1.5-9.1,4.6-12.8c3.7-4.3,8.7-6.6,14.8-6.7c3.2-0.1,6.2,0.5,9,1.6
		C255.2,28.3,257.5,30,259.8,32.4"/>
	<path class="st1" d="M345,57.2l-6.3,2.4c-1.7-4.5-4.4-7.6-8.2-9.3c-3.2-1.4-6.4-1.4-9.6-0.2c-3.2,1.3-5.4,3.5-6.8,6.7
		c-1,2.3-1.3,4.5-1.1,6.6c0.2,2.2,1,4.1,2.4,5.9c1.4,1.8,3.1,3.1,5.3,4c1.9,0.8,3.7,1.2,5.6,1.1c1.8,0,4.1-0.6,6.7-1.6l2.4,6.4
		c-3.5,1.4-6.6,2-9.2,2c-2.6,0-5.4-0.6-8.2-1.8c-5.2-2.2-8.8-5.7-10.7-10.5c-1.9-4.8-1.8-9.7,0.5-14.9c1.4-3.4,3.5-6,6.1-8
		c2.6-2,5.7-3.1,9.2-3.5c3.5-0.4,6.9,0.1,10.2,1.5c2.8,1.2,5.2,2.9,7.3,5.2C342.5,51.6,344,54.2,345,57.2"/>
	<polygon class="st1" points="367.9,64.2 384,76.2 379.9,81.7 369.4,73.9 365.5,79.2 376,87 372,92.4 361.5,84.6 355.7,92.3 
		366.2,100.1 362.1,105.7 346,93.7 	"/>
	<polygon class="st1" points="402.1,92.5 406.4,97.6 398.2,125.2 416.6,109.6 421.1,114.9 393.1,138.7 388.8,133.6 397,106 
		378.6,121.6 374.1,116.3 	"/>
	<polygon class="st1" points="433.2,133.6 442.7,151.5 436.7,154.7 433.5,148.8 407.2,162.8 403.9,156.6 430.2,142.6 427.1,136.8 	
		"/>
	<polygon class="st1" points="450.9,171.3 456.9,190.5 450.4,192.5 446.5,180 440.1,182 444,194.5 437.6,196.5 433.7,184 
		424.5,186.9 428.4,199.4 421.8,201.4 415.9,182.3 	"/>
	<path class="st1" d="M461.6,214.3l0.7,7.4c0.4,4,0.3,6.9-0.3,8.7c-0.6,1.8-1.6,3.3-3.2,4.5c-1.6,1.2-3.5,1.9-5.8,2.1
		c-2.4,0.2-4.5-0.2-6.2-1.2c-1.7-1-3.1-2.6-4.2-4.9l-15.4,10.2l-0.7-7.6l14.7-9.7l-0.1-0.6l-15.5,1.5l-0.7-7L461.6,214.3z
		 M447.9,222.6l0.2,2.2c0.2,2.2,0.6,3.7,1.3,4.5c0.7,0.8,1.7,1.1,3,1c0.8-0.1,1.5-0.3,2-0.8c0.6-0.5,0.9-1.1,1.1-1.8
		c0.2-0.7,0.2-2,0-3.9l-0.2-1.9L447.9,222.6z"/>
</g>
</svg>
