<?xml version="1.0" encoding="utf-8"?>
<!-- Generator: Adobe Illustrator 22.0.1, SVG Export Plug-In . SVG Version: 6.00 Build 0)  -->
<svg version="1.1" id="Слой_1" xmlns="http://www.w3.org/2000/svg" xmlns:xlink="http://www.w3.org/1999/xlink" x="0px" y="0px"
	 viewBox="0 0 262.9 128.8" style="enable-background:new 0 0 262.9 128.8;" xml:space="preserve">
<style type="text/css">
	.st0{clip-path:url(#SVGID_2_);fill:#A6192E;}
	.st1{clip-path:url(#SVGID_4_);fill:#7DA1C4;}
	.st2{clip-path:url(#SVGID_6_);fill:#7DA1C4;}
	.st3{clip-path:url(#SVGID_8_);fill:#7DA1C4;}
	.st4{clip-path:url(#SVGID_10_);fill:#7DA1C4;}
	.st5{clip-path:url(#SVGID_12_);fill:#041E42;}
	.st6{clip-path:url(#SVGID_14_);fill:#FFFFFF;}
	.st7{clip-path:url(#SVGID_16_);fill:#FFFFFF;}
	.st8{clip-path:url(#SVGID_18_);fill:#FFFFFF;}
	.st9{clip-path:url(#SVGID_20_);fill:#FFFFFF;}
	.st10{clip-path:url(#SVGID_22_);fill:#FFFFFF;}
	.st11{clip-path:url(#SVGID_24_);fill:#FFFFFF;}
	.st12{clip-path:url(#SVGID_26_);fill:#FFFFFF;}
</style>
<g>
	<g>
		<defs>
			<rect id="SVGID_1_" x="-115.3" y="-190.3" width="490.1" height="490.1"/>
		</defs>
		<clipPath id="SVGID_2_">
			<use xlink:href="#SVGID_1_"  style="overflow:visible;"/>
		</clipPath>
		<path class="st0" d="M153,37.8h35V19.3h-53v47.4c6.3-0.1,20.2-1.9,28.8,0.6c4.7,1.3,7.4,4,7.7,9.1c-0.1,6.9-3.8,10.5-9.7,10.5
			c-5.7,0-9.4-2.9-9.5-8.5h-18.7c0.7,17.3,12.5,27.7,28.7,27.7c19.7,0,30-15.1,29.9-29.7c-0.1-25.3-19.3-29.3-39.1-28.1V37.8H153z
			 M223.3,37.8h35V19.3h-53v47.4c6.3-0.1,20.2-1.9,28.8,0.6c4.7,1.3,7.4,4,7.7,9.1c-0.1,6.9-3.8,10.5-9.7,10.5
			c-5.7,0-9.4-2.9-9.5-8.5h-18.7c0.7,17.3,12.5,27.7,28.7,27.7c19.7,0,30-15.1,29.9-29.7c-0.1-25.3-19.3-29.3-39.1-28.1L223.3,37.8
			L223.3,37.8z"/>
	</g>
	<g>
		<defs>
			<rect id="SVGID_3_" x="-115.3" y="-190.3" width="490.1" height="490.1"/>
		</defs>
		<clipPath id="SVGID_4_">
			<use xlink:href="#SVGID_3_"  style="overflow:visible;"/>
		</clipPath>
		<path class="st1" d="M110.3,47.9l16.5-28.6h-22.2L102,24c2.3,3.6,4.2,7.3,5.6,11.1C109,39.2,109.9,43.5,110.3,47.9"/>
	</g>
	<g>
		<defs>
			<rect id="SVGID_5_" x="-115.3" y="-190.3" width="490.1" height="490.1"/>
		</defs>
		<clipPath id="SVGID_6_">
			<use xlink:href="#SVGID_5_"  style="overflow:visible;"/>
		</clipPath>
		<path class="st2" d="M78.8,71.5c3.8-5.6,5.8-11.1,6.1-16.5L72.1,77.9C74.9,76.1,77.2,74,78.8,71.5"/>
	</g>
	<g>
		<defs>
			<rect id="SVGID_7_" x="-115.3" y="-190.3" width="490.1" height="490.1"/>
		</defs>
		<clipPath id="SVGID_8_">
			<use xlink:href="#SVGID_7_"  style="overflow:visible;"/>
		</clipPath>
		<path class="st3" d="M65.8,107.3c-4.3,0.7-9.3,1.1-14.9,1.2L64,127.9l14.1-24.3c-0.2,0.1-0.3,0.2-0.5,0.2
			C74.5,105.3,70.5,106.5,65.8,107.3"/>
	</g>
	<g>
		<defs>
			<rect id="SVGID_9_" x="-115.3" y="-190.3" width="490.1" height="490.1"/>
		</defs>
		<clipPath id="SVGID_10_">
			<use xlink:href="#SVGID_9_"  style="overflow:visible;"/>
		</clipPath>
		<path class="st4" d="M2.4,1.2v35.3l0.2,0.3l10.1,15.1l21.2,31.6h17.8c2.8,0,5.2-0.1,7.2-0.4L2.4,1.2z"/>
	</g>
	<g>
		<defs>
			<rect id="SVGID_11_" x="-115.3" y="-190.3" width="490.1" height="490.1"/>
		</defs>
		<clipPath id="SVGID_12_">
			<use xlink:href="#SVGID_11_"  style="overflow:visible;"/>
		</clipPath>
		<path class="st5" d="M105.4,35.9c-1.9-5.5-4.9-10.7-9-15.6c-2.2-2.6-4.3-4.9-6.4-6.7s-4.1-3.3-6.2-4.5C80.3,7,76.9,5.3,73.7,4
			c-3.2-1.3-6.3-2-9.2-2.1c-1-0.4-3.6-0.6-7.6-0.8C52.8,1,47.2,1,40,1H13.5L27,21.5h24.7c9.6,0,16.8,2.2,22.1,6.4
			c1.3,1,2.8,2,4.1,3.3c1.3,1.3,2.5,2.8,3.6,4.6c3.8,5.8,5.6,11.9,5.6,18.3c0,6.2-2.2,12.5-6.5,18.9c-3.4,5.1-9.1,9-16.8,11.5
			c-2.8,0.9-6.8,1.4-12.2,1.4H23.1v-9.2l-20.8-36v45.2l20.8,20.4h26.3c6.1,0,11.4-0.4,15.9-1.2c4.5-0.8,8.2-1.9,11.2-3.3
			c6.4-2.9,11.8-6.6,16.4-11.1s8.2-9.9,11-16.3s4.2-13.3,4.2-20.7C108.3,47.4,107.3,41.5,105.4,35.9"/>
	</g>
	<g>
		<defs>
			<rect id="SVGID_13_" x="-115.3" y="-190.3" width="490.1" height="490.1"/>
		</defs>
		<clipPath id="SVGID_14_">
			<use xlink:href="#SVGID_13_"  style="overflow:visible;"/>
		</clipPath>
		<path class="st6" d="M-17.9,162.1l-29.4,21.7l-7.8-10.6l-0.5-0.6c-0.4-0.6-0.6-1.1-0.7-1.5c0-0.5,0.1-0.8,0.5-1.1
			c0.6-0.4,1.2-0.4,1.9,0.1c0.5,0.4,0.9,0.6,1,0.7c0.1,0.1,0.3,0.1,0.4,0.1c0.4,0,0.8-0.2,1.3-0.5l21.6-15.9
			c0.5-0.4,0.8-0.7,0.9-1.1c0.1-0.2,0.1-0.3,0-0.5c0-0.1-0.2-0.5-0.4-1.1c-0.3-0.8-0.1-1.4,0.5-1.8c0.4-0.3,0.8-0.3,1.2-0.2
			c0.4,0.2,0.8,0.5,1.3,1.1l0.5,0.6L-17.9,162.1z M-37.6,184.1l17-12.6c1-0.8,1.8-1.6,2.1-2.3c0.3-0.5,0.4-1,0.3-1.4
			c0-0.4-0.2-1-0.6-1.8l2.4-1.8c0.6,0.8,1.1,1.6,1.5,2.2c1.3,2.2,1.9,4.7,2,7.6c0.1,2.8-0.6,5.5-2,7.9c-1.4,2.5-3.5,4.7-6,6.6
			c-2.9,2.2-6,3.5-9.1,4c-3.2,0.5-6.2,0.1-9.1-1.1c-1.4-0.6-2.6-1.3-3.5-2c-0.9-0.8-1.9-1.9-3-3.4l2.3-1.7c0.6,0.5,1.1,0.9,1.5,1.1
			c0.3,0.2,0.7,0.2,1.1,0.2c0.5,0,1-0.1,1.4-0.3C-39,185-38.4,184.6-37.6,184.1"/>
	</g>
	<g>
		<defs>
			<rect id="SVGID_15_" x="-115.3" y="-190.3" width="490.1" height="490.1"/>
		</defs>
		<clipPath id="SVGID_16_">
			<use xlink:href="#SVGID_15_"  style="overflow:visible;"/>
		</clipPath>
		<path class="st7" d="M-13.8,220.4l-9.7-8.9l-0.6-0.5c-0.5-0.5-0.8-0.9-1-1.4c-0.1-0.4,0-0.8,0.3-1.1c0.5-0.5,1.1-0.6,1.8-0.3
			c0.6,0.3,1,0.5,1.1,0.5s0.3,0,0.5,0c0.4-0.1,0.8-0.3,1.2-0.8L-2,188.2c0.4-0.5,0.6-0.9,0.7-1.2c0-0.2,0-0.4,0-0.5s-0.2-0.4-0.6-1
			c-0.4-0.7-0.4-1.3,0.1-1.9c0.3-0.3,0.7-0.5,1.1-0.4s0.9,0.4,1.4,0.8l0.6,0.5l9.7,8.9l0.6,0.5c0.5,0.5,0.8,0.9,1,1.4
			c0.1,0.4,0,0.8-0.3,1.1c-0.5,0.5-1.1,0.6-1.8,0.3c-0.6-0.3-1-0.5-1.1-0.5s-0.3,0-0.5,0c-0.4,0.1-0.8,0.3-1.2,0.8l-18.2,19.7
			c-0.4,0.5-0.6,0.9-0.7,1.2c0,0.2,0,0.3,0,0.5c0,0.1,0.2,0.4,0.6,1c0.4,0.7,0.4,1.3-0.1,1.9c-0.3,0.3-0.7,0.5-1.1,0.4
			s-0.9-0.4-1.4-0.8L-13.8,220.4z"/>
	</g>
	<g>
		<defs>
			<rect id="SVGID_17_" x="-115.3" y="-190.3" width="490.1" height="490.1"/>
		</defs>
		<clipPath id="SVGID_18_">
			<use xlink:href="#SVGID_17_"  style="overflow:visible;"/>
		</clipPath>
		<path class="st8" d="M23.8,235.8l-7.4,6.5l-6.6-4.1l8.1-32.7c0.1-0.5,0.2-0.8,0.1-1.1c0-0.2-0.1-0.5-0.3-0.7
			c-0.4-0.5-0.6-0.9-0.7-1.2s0-0.6,0.2-0.9c0.3-0.5,0.7-0.7,1.3-0.6c0.5,0,1.1,0.3,1.9,0.8l11.1,7c0.7,0.4,1.2,0.8,1.4,0.9
			c0.2,0.2,0.4,0.4,0.5,0.6c0.1,0.2,0.1,0.5,0.1,0.7c0,0.3-0.1,0.5-0.2,0.7c-0.4,0.6-0.9,0.8-1.6,0.7c-0.6-0.1-1-0.1-1.3,0
			s-0.5,0.3-0.8,0.7c-0.2,0.2-0.3,0.5-0.3,0.7L23.8,235.8z M26.8,233.2l1.3-5.1l8.9-7.8c0.6-0.5,0.9-0.8,1-0.9
			c0.2-0.3,0.4-0.7,0.4-1.3c0.1-0.7-0.1-1.3-0.6-1.8l-0.7-0.8c-0.5-0.6-0.6-1.2-0.2-1.8c0.3-0.4,0.6-0.6,1.1-0.6s1.1,0.2,1.7,0.6
			l6.1,3.8c0.8,0.5,1.2,0.9,1.4,1.1c0.3,0.5,0.3,0.9,0,1.4c-0.2,0.3-0.4,0.5-0.6,0.6c-0.2,0.1-0.6,0.1-1,0l-1.6-0.3
			c-0.7-0.1-1.5,0-2.4,0.4s-1.8,0.9-2.6,1.6L26.8,233.2z"/>
	</g>
	<g>
		<defs>
			<rect id="SVGID_19_" x="-115.3" y="-190.3" width="490.1" height="490.1"/>
		</defs>
		<clipPath id="SVGID_20_">
			<use xlink:href="#SVGID_19_"  style="overflow:visible;"/>
		</clipPath>
		<path class="st9" d="M55.8,261.1l-12.2-4.8l-0.7-0.3c-0.7-0.3-1.1-0.6-1.4-0.9c-0.3-0.4-0.3-0.8-0.2-1.2c0.3-0.7,0.8-1,1.6-0.9
			c0.7,0.1,1.1,0.1,1.2,0.1c0.1,0,0.3-0.1,0.4-0.2c0.3-0.2,0.6-0.6,0.8-1.1l9.8-25c0.2-0.6,0.3-1,0.2-1.4c-0.1-0.2-0.1-0.3-0.2-0.4
			c-0.1-0.1-0.4-0.3-0.9-0.8c-0.6-0.5-0.8-1.1-0.6-1.8c0.2-0.4,0.5-0.7,0.9-0.8s1,0,1.7,0.3l0.7,0.3l12.2,4.8l0.7,0.3
			c0.7,0.3,1.1,0.6,1.4,0.9c0.3,0.4,0.3,0.8,0.2,1.2c-0.3,0.7-0.8,1-1.6,0.9c-0.7-0.1-1.1-0.1-1.2-0.1s-0.3,0.1-0.4,0.2
			c-0.3,0.2-0.6,0.6-0.8,1.1l-9.8,25c-0.2,0.6-0.3,1-0.2,1.4c0.1,0.2,0.1,0.3,0.2,0.4c0.1,0.1,0.4,0.3,0.9,0.8
			c0.6,0.5,0.8,1.1,0.6,1.8c-0.2,0.4-0.5,0.7-0.9,0.8c-0.4,0.1-1,0-1.7-0.3L55.8,261.1z"/>
	</g>
	<g>
		<defs>
			<rect id="SVGID_21_" x="-115.3" y="-190.3" width="490.1" height="490.1"/>
		</defs>
		<clipPath id="SVGID_22_">
			<use xlink:href="#SVGID_21_"  style="overflow:visible;"/>
		</clipPath>
		<path class="st10" d="M85.2,266.9l-0.6,3c-1.6-0.3-3.2-1.1-5-2.3c-0.7-0.4-1.1-0.7-1.4-0.9c-0.3-0.1-0.5-0.2-0.8-0.3
			c-0.4-0.1-0.7-0.1-0.9,0c-0.2,0.1-0.6,0.3-1.1,0.7c-0.4,0.3-0.8,0.4-1.2,0.4c-1.1-0.2-1.5-1.1-1.2-2.6l1.9-9.6
			c0.1-0.5,0.3-0.9,0.7-1.2c0.4-0.3,0.8-0.4,1.3-0.3c0.4,0.1,0.7,0.2,0.9,0.5c0.2,0.3,0.3,0.7,0.4,1.4c0.1,1.6,0.5,3.1,1.1,4.6
			s1.3,2.8,2.3,3.9C82.6,265.4,83.8,266.3,85.2,266.9 M93.5,232.8l-0.6,3c-1.3,0.1-2.3,0.3-3,0.8s-1.2,1.2-1.4,2.1
			c-0.2,0.9-0.1,1.7,0.3,2.5s1.1,1.6,2.2,2.4c0.7,0.6,2.4,1.7,5,3.4c1.6,1,2.8,1.9,3.7,2.6c0.8,0.7,1.6,1.6,2.3,2.6
			c1.8,2.6,2.5,5.4,1.9,8.4c-0.4,2.3-1.5,4.2-3.1,5.8c-1.6,1.6-3.6,2.8-6,3.4c-1.3,0.3-2.6,0.5-4.1,0.6c-1.4,0.1-2.8,0-4-0.3l0.6-3
			c1.8,0,3.1-0.3,3.9-0.8c0.9-0.5,1.4-1.3,1.6-2.4c0.2-1.2-0.1-2.3-1.1-3.4c-0.7-0.7-2-1.7-4-3c-2.2-1.4-3.7-2.4-4.5-3
			s-1.5-1.2-2.3-1.9c-3.2-3.1-4.4-6.5-3.6-10.5c0.4-2,1.2-3.8,2.4-5.3c1.2-1.5,2.8-2.6,4.6-3.3C87.1,232.6,90.1,232.3,93.5,232.8
			 M95.2,236.3l0.6-2.9c1.1,0.3,2.1,0.6,2.9,1s1.9,1,3.4,1.9c0.4,0.2,0.7,0.3,0.9,0.4c0.4,0.1,0.7,0,0.9-0.2l0.8-0.6
			c0.4-0.3,0.8-0.4,1.2-0.4c0.5,0.1,0.9,0.3,1,0.7c0.2,0.4,0.2,1,0,1.7l-1.7,8.7c-0.1,0.5-0.3,0.9-0.7,1.2c-0.4,0.3-0.8,0.3-1.3,0.2
			c-0.4-0.1-0.7-0.3-1-0.6c-0.1-0.2-0.3-0.4-0.3-0.6c-0.1-0.2-0.1-0.6-0.1-1.1c0-0.9-0.2-1.9-0.6-2.9c-0.3-1-0.8-1.9-1.3-2.8
			C98.7,238.5,97.2,237.2,95.2,236.3"/>
	</g>
	<g>
		<defs>
			<rect id="SVGID_23_" x="-115.3" y="-190.3" width="490.1" height="490.1"/>
		</defs>
		<clipPath id="SVGID_24_">
			<use xlink:href="#SVGID_23_"  style="overflow:visible;"/>
		</clipPath>
		<path class="st11" d="M132.6,273.8l-13.1-0.2h-0.8c-0.7,0-1.3-0.1-1.6-0.4c-0.4-0.2-0.6-0.6-0.6-1c0-0.7,0.4-1.2,1.2-1.4
			c0.7-0.2,1-0.3,1.1-0.3s0.2-0.1,0.3-0.3c0.2-0.3,0.4-0.7,0.4-1.4l0.4-26.8c0-0.6-0.1-1.1-0.3-1.4c-0.1-0.2-0.2-0.3-0.3-0.3
			c-0.1,0-0.5-0.2-1.1-0.4c-0.8-0.2-1.2-0.7-1.2-1.5c0-0.4,0.2-0.8,0.6-1s0.9-0.3,1.6-0.3h0.8l13.1,0.2h0.8c0.7,0,1.3,0.1,1.6,0.4
			c0.4,0.2,0.6,0.6,0.6,1c0,0.7-0.4,1.2-1.2,1.4c-0.7,0.2-1,0.3-1.1,0.3s-0.2,0.1-0.3,0.3c-0.2,0.3-0.4,0.7-0.4,1.4l-0.4,26.8
			c0,0.6,0.1,1.1,0.3,1.4c0.1,0.2,0.2,0.3,0.3,0.3s0.5,0.2,1.1,0.4c0.8,0.2,1.2,0.7,1.2,1.5c0,0.4-0.2,0.8-0.6,1
			c-0.4,0.2-0.9,0.3-1.6,0.3L132.6,273.8z"/>
	</g>
	<g>
		<defs>
			<rect id="SVGID_25_" x="-115.3" y="-190.3" width="490.1" height="490.1"/>
		</defs>
		<clipPath id="SVGID_26_">
			<use xlink:href="#SVGID_25_"  style="overflow:visible;"/>
		</clipPath>
		<path class="st12" d="M160.1,236.8c-0.9,0.5-1.6,1-1.9,1.7c-0.3,0.6-0.4,1.5-0.2,2.5l4.1,23.6c0.3,1.5,0.7,2.6,1.3,3.2
			c0.5,0.5,1.2,0.7,2.2,0.8l0.5,2.9c-4.4,0.4-8.2-0.4-11.6-2.5c-4.4-2.8-7.1-7.2-8.1-13.3c-0.5-3.1-0.5-5.9,0.1-8.6
			c0.6-2.6,1.7-5,3.3-7.1c1.3-1.6,2.7-2.9,4.3-3.8c1.6-1,3.4-1.7,5.5-2.2L160.1,236.8z M162.5,236.4l-0.5-2.9
			c2.1-0.3,4.1-0.2,5.9,0.2c1.9,0.4,3.6,1.1,5.4,2.2c4.6,2.8,7.4,7.3,8.5,13.6c1.1,6.1,0,11.2-3.2,15.3c-2.4,3.1-5.8,5.2-10.1,6.3
			l-0.5-2.9c0.5-0.2,0.9-0.4,1.1-0.6c0.3-0.2,0.5-0.5,0.6-0.9c0.4-0.8,0.5-1.9,0.2-3.4l-4.1-23.6c-0.2-0.9-0.5-1.6-0.9-2.1
			c-0.3-0.3-0.6-0.6-1-0.7C163.6,236.6,163.1,236.5,162.5,236.4"/>
	</g>
</g>
</svg>
